<svg fill="#000000" xmlns="http://www.w3.org/2000/svg"  viewBox="0 0 24 24" width="24px" height="24px"><path d="M 2 0 C 0.896 0 0 0.895 0 2 L 0 22 C 0 23.105 0.896 24 2 24 L 22 24 C 23.104 24 24 23.105 24 22 L 24 2 C 24 0.895 23.104 0 22 0 L 2 0 z M 6.5175781 5.2148438 L 13.320312 5.2148438 C 14.578312 5.2148438 15.585844 5.4972187 16.339844 6.0742188 C 17.099844 6.6542188 17.478516 7.5175937 17.478516 8.6835938 C 17.478516 9.3885938 17.306937 9.9941406 16.960938 10.494141 C 16.616937 10.991141 16.120469 11.380391 15.480469 11.650391 L 15.480469 11.695312 C 16.334469 11.875312 16.994688 12.280156 17.429688 12.910156 C 17.864687 13.540156 18.087891 14.337828 18.087891 15.298828 C 18.087891 15.836828 17.983109 16.348172 17.787109 16.826172 L 17.8125 16.853516 L 17.8125 16.855469 C 17.6125 17.337469 17.296625 17.762844 16.890625 18.089844 C 16.470625 18.429844 15.938203 18.708203 15.283203 18.908203 C 14.629203 19.111203 13.850219 19.214844 12.949219 19.214844 L 6.5175781 19.214844 L 6.5175781 5.2148438 z M 8.96875 7.2148438 L 8.96875 11.078125 L 12.96875 11.078125 C 13.55175 11.078125 14.049594 10.908031 14.433594 10.582031 L 14.4375 10.582031 C 14.8335 10.246031 15.027344 9.7656719 15.027344 9.1386719 C 15.027344 8.4346719 14.851094 7.9344375 14.496094 7.6484375 C 14.144094 7.3634375 13.63675 7.2148438 12.96875 7.2148438 L 8.96875 7.2148438 z M 8.984375 12.847656 L 8.984375 17.214844 L 13.318359 17.214844 C 14.058359 17.214844 14.638828 17.022766 15.048828 16.634766 C 15.458828 16.249766 15.669922 15.700141 15.669922 14.994141 C 15.662922 14.304141 15.458828 13.770297 15.048828 13.404297 L 15.037109 13.404297 C 14.627109 13.029297 14.050641 12.847656 13.306641 12.847656 L 8.984375 12.847656 z"/></svg>